<svg xmlns="http://www.w3.org/2000/svg" viewBox="0 0 900 600">
    <rect width="900" height="600" fill="#DE2910"/>
    <polygon points="150,80 175,155 250,155 190,200 215,275 150,230 85,275 110,200 50,155 125,155" fill="#FFDE00"/>
    <polygon points="280,50 290,80 320,80 295,100 305,130 280,110 255,130 265,100 240,80 270,80" fill="#FFDE00"/>
    <polygon points="320,120 330,150 360,150 335,170 345,200 320,180 295,200 305,170 280,150 310,150" fill="#FFDE00"/>
    <polygon points="320,210 330,240 360,240 335,260 345,290 320,270 295,290 305,260 280,240 310,240" fill="#FFDE00"/>
    <polygon points="280,280 290,310 320,310 295,330 305,360 280,340 255,360 265,330 240,310 270,310" fill="#FFDE00"/>
</svg>
